<svg width="306" height="77" viewBox="0 0 306 77" fill="none" xmlns="http://www.w3.org/2000/svg">
<path d="M7.51646 10.0582C-4.28548 25.1215 2.59899 49.8658 7.51646 60.355C8.97151 63.8338 11.4909 65.4156 12.5687 65.7716C61.7165 80.8348 96.2446 72.7153 110.054 66.4389C123.958 84.1847 143.32 73.1656 148.574 65.7716C217.082 80.4737 293.673 65.5137 297.715 65.7716C301.757 66.0295 311.861 30.6928 297.715 19.3438C286.398 10.2646 273.868 15.5608 269.018 19.3438C259.156 11.5027 245.374 16.0767 239.716 19.3438C227.914 12.7407 213.781 16.5925 208.19 19.3438C199.298 13.5661 180.744 18.7849 176.5 21.1923C178.278 15.8273 174.741 13.7772 174 12.0577C169.352 6.12524 146.638 6.59377 143 9.17308C140.09 11.2365 136.733 15.0735 137.946 18.1687C126.952 11.1529 123.919 16.4206 118.463 19.3438C111.996 11.09 100.275 15.9047 95.2226 19.3438C85.8458 7.37574 71.511 14.3571 65.5157 19.3438C65.7178 17.9682 67.3501 16.2486 62.5 10.0582C57.6499 3.86785 46.1826 4.89957 42.2756 7.4789C35.6067 2.06232 19.3184 -5.00502 7.51646 10.0582Z" fill="#231B40" stroke="black"/>
<path d="M28.024 55.3068C25.336 55.3068 22.76 54.9548 20.296 54.2508C17.832 53.5148 15.848 52.5708 14.344 51.4188L16.984 45.5628C18.424 46.5868 20.12 47.4348 22.072 48.1068C24.056 48.7468 26.056 49.0668 28.072 49.0668C29.608 49.0668 30.84 48.9228 31.768 48.6348C32.728 48.3148 33.432 47.8828 33.88 47.3388C34.328 46.7948 34.552 46.1708 34.552 45.4668C34.552 44.5708 34.2 43.8668 33.496 43.3548C32.792 42.8108 31.864 42.3788 30.712 42.0588C29.56 41.7068 28.28 41.3868 26.872 41.0988C25.496 40.7788 24.104 40.3948 22.696 39.9468C21.32 39.4988 20.056 38.9228 18.904 38.2188C17.752 37.5148 16.808 36.5868 16.072 35.4348C15.368 34.2828 15.016 32.8108 15.016 31.0188C15.016 29.0988 15.528 27.3548 16.552 25.7868C17.608 24.1868 19.176 22.9228 21.256 21.9948C23.368 21.0348 26.008 20.5548 29.176 20.5548C31.288 20.5548 33.368 20.8108 35.416 21.3228C37.464 21.8028 39.272 22.5388 40.84 23.5308L38.44 29.4348C36.872 28.5388 35.304 27.8828 33.736 27.4668C32.168 27.0188 30.632 26.7948 29.128 26.7948C27.624 26.7948 26.392 26.9708 25.432 27.3228C24.472 27.6748 23.784 28.1388 23.368 28.7148C22.952 29.2588 22.744 29.8988 22.744 30.6348C22.744 31.4988 23.096 32.2028 23.8 32.7468C24.504 33.2588 25.432 33.6748 26.584 33.9948C27.736 34.3148 29 34.6348 30.376 34.9548C31.784 35.2748 33.176 35.6428 34.552 36.0588C35.96 36.4748 37.24 37.0348 38.392 37.7388C39.544 38.4428 40.472 39.3708 41.176 40.5228C41.912 41.6748 42.28 43.1308 42.28 44.8908C42.28 46.7788 41.752 48.5068 40.696 50.0748C39.64 51.6428 38.056 52.9068 35.944 53.8668C33.864 54.8268 31.224 55.3068 28.024 55.3068ZM57.6254 55.1148C54.5854 55.1148 52.2174 54.3468 50.5214 52.8108C48.8254 51.2428 47.9774 48.9228 47.9774 45.8508V23.1948H55.4654V45.7548C55.4654 46.8428 55.7534 47.6908 56.3294 48.2988C56.9054 48.8748 57.6894 49.1628 58.6814 49.1628C59.8654 49.1628 60.8734 48.8428 61.7054 48.2028L63.7214 53.4828C62.9534 54.0268 62.0254 54.4428 60.9374 54.7308C59.8814 54.9868 58.7774 55.1148 57.6254 55.1148ZM43.9934 35.2428V29.4828H61.8974V35.2428H43.9934ZM79.4159 55.1148C76.6639 55.1148 74.2159 54.5388 72.0719 53.3868C69.9599 52.2348 68.2799 50.6668 67.0319 48.6828C65.8159 46.6668 65.2079 44.3788 65.2079 41.8188C65.2079 39.2268 65.8159 36.9388 67.0319 34.9548C68.2799 32.9388 69.9599 31.3708 72.0719 30.2508C74.2159 29.0988 76.6639 28.5228 79.4159 28.5228C82.1359 28.5228 84.5679 29.0988 86.7119 30.2508C88.8559 31.3708 90.5359 32.9228 91.7519 34.9068C92.9679 36.8908 93.5759 39.1948 93.5759 41.8188C93.5759 44.3788 92.9679 46.6668 91.7519 48.6828C90.5359 50.6668 88.8559 52.2348 86.7119 53.3868C84.5679 54.5388 82.1359 55.1148 79.4159 55.1148ZM79.4159 48.9708C80.6639 48.9708 81.7839 48.6828 82.7759 48.1068C83.7679 47.5308 84.5519 46.7148 85.1279 45.6588C85.7039 44.5708 85.9919 43.2908 85.9919 41.8188C85.9919 40.3148 85.7039 39.0348 85.1279 37.9788C84.5519 36.9228 83.7679 36.1068 82.7759 35.5308C81.7839 34.9548 80.6639 34.6668 79.4159 34.6668C78.1679 34.6668 77.0479 34.9548 76.0559 35.5308C75.0639 36.1068 74.2639 36.9228 73.6559 37.9788C73.0799 39.0348 72.7919 40.3148 72.7919 41.8188C72.7919 43.2908 73.0799 44.5708 73.6559 45.6588C74.2639 46.7148 75.0639 47.5308 76.0559 48.1068C77.0479 48.6828 78.1679 48.9708 79.4159 48.9708ZM98.581 54.7308V28.9068H105.733V36.2028L104.725 34.0908C105.493 32.2668 106.725 30.8908 108.421 29.9628C110.117 29.0028 112.181 28.5228 114.613 28.5228V35.4348C114.293 35.4028 114.005 35.3868 113.749 35.3868C113.493 35.3548 113.221 35.3388 112.933 35.3388C110.885 35.3388 109.221 35.9308 107.941 37.1148C106.693 38.2668 106.069 40.0748 106.069 42.5388V54.7308H98.581ZM123.22 64.4268C121.876 64.4268 120.548 64.2188 119.236 63.8028C117.924 63.3868 116.852 62.8108 116.02 62.0748L118.756 56.7468C119.332 57.2588 119.988 57.6588 120.724 57.9468C121.492 58.2348 122.244 58.3788 122.98 58.3788C124.036 58.3788 124.868 58.1228 125.476 57.6108C126.116 57.1308 126.692 56.3148 127.204 55.1628L128.548 51.9948L129.124 51.1788L138.388 28.9068H145.588L133.924 56.3148C133.092 58.3948 132.132 60.0268 131.044 61.2108C129.988 62.3948 128.804 63.2268 127.492 63.7068C126.212 64.1868 124.788 64.4268 123.22 64.4268ZM127.636 55.7388L116.116 28.9068H123.844L132.772 50.5068L127.636 55.7388ZM155.288 54.7308V27.4668H144.536V21.1308H173.816V27.4668H163.064V54.7308H155.288ZM187.805 55.1148C185.661 55.1148 183.741 54.6988 182.045 53.8668C180.381 53.0348 179.085 51.7708 178.157 50.0748C177.229 48.3468 176.765 46.1548 176.765 43.4988V28.9068H184.253V42.3948C184.253 44.5388 184.701 46.1228 185.597 47.1468C186.525 48.1388 187.821 48.6348 189.485 48.6348C190.637 48.6348 191.661 48.3948 192.557 47.9148C193.453 47.4028 194.157 46.6348 194.669 45.6108C195.181 44.5548 195.437 43.2428 195.437 41.6748V28.9068H202.925V54.7308H195.821V47.6268L197.117 49.6908C196.253 51.4828 194.973 52.8428 193.277 53.7708C191.613 54.6668 189.789 55.1148 187.805 55.1148ZM225.558 28.5228C227.606 28.5228 229.43 28.9388 231.03 29.7708C232.662 30.5708 233.942 31.8188 234.87 33.5148C235.798 35.1788 236.262 37.3228 236.262 39.9468V54.7308H228.774V41.0988C228.774 39.0188 228.31 37.4828 227.382 36.4908C226.486 35.4988 225.206 35.0028 223.542 35.0028C222.358 35.0028 221.286 35.2588 220.326 35.7708C219.398 36.2508 218.662 37.0028 218.118 38.0268C217.606 39.0508 217.35 40.3628 217.35 41.9628V54.7308H209.862V28.9068H217.014V36.0588L215.67 33.8988C216.598 32.1708 217.926 30.8428 219.654 29.9148C221.382 28.9868 223.35 28.5228 225.558 28.5228ZM256.053 55.1148C253.109 55.1148 250.517 54.5388 248.277 53.3868C246.069 52.2348 244.357 50.6668 243.141 48.6828C241.925 46.6668 241.317 44.3788 241.317 41.8188C241.317 39.2268 241.909 36.9388 243.093 34.9548C244.309 32.9388 245.957 31.3708 248.037 30.2508C250.117 29.0988 252.469 28.5228 255.093 28.5228C257.621 28.5228 259.893 29.0668 261.909 30.1548C263.957 31.2108 265.573 32.7468 266.757 34.7628C267.941 36.7468 268.533 39.1308 268.533 41.9148C268.533 42.2028 268.517 42.5388 268.485 42.9228C268.453 43.2748 268.421 43.6108 268.389 43.9308H247.413V39.5628H264.453L261.573 40.8588C261.573 39.5148 261.301 38.3468 260.757 37.3548C260.213 36.3628 259.461 35.5948 258.501 35.0508C257.541 34.4748 256.421 34.1868 255.141 34.1868C253.861 34.1868 252.725 34.4748 251.733 35.0508C250.773 35.5948 250.021 36.3788 249.477 37.4028C248.933 38.3948 248.661 39.5788 248.661 40.9548V42.1068C248.661 43.5148 248.965 44.7628 249.573 45.8508C250.213 46.9068 251.093 47.7228 252.213 48.2988C253.365 48.8428 254.709 49.1148 256.245 49.1148C257.621 49.1148 258.821 48.9068 259.845 48.4908C260.901 48.0748 261.861 47.4508 262.725 46.6188L266.709 50.9388C265.525 52.2828 264.037 53.3228 262.245 54.0588C260.453 54.7628 258.389 55.1148 256.053 55.1148ZM282.207 55.1148C279.999 55.1148 277.871 54.8588 275.823 54.3468C273.807 53.8028 272.207 53.1308 271.023 52.3308L273.519 46.9548C274.703 47.6908 276.095 48.2988 277.695 48.7788C279.327 49.2268 280.927 49.4508 282.495 49.4508C284.223 49.4508 285.439 49.2428 286.143 48.8268C286.879 48.4108 287.247 47.8348 287.247 47.0988C287.247 46.4908 286.959 46.0428 286.383 45.7548C285.839 45.4348 285.103 45.1948 284.174 45.0348C283.247 44.8748 282.223 44.7148 281.103 44.5548C280.015 44.3948 278.911 44.1868 277.791 43.9308C276.671 43.6428 275.647 43.2268 274.719 42.6828C273.791 42.1388 273.039 41.4028 272.463 40.4748C271.919 39.5468 271.646 38.3468 271.646 36.8748C271.646 35.2428 272.111 33.8028 273.039 32.5548C273.999 31.3068 275.375 30.3308 277.167 29.6268C278.959 28.8908 281.103 28.5228 283.599 28.5228C285.359 28.5228 287.151 28.7148 288.975 29.0988C290.799 29.4828 292.319 30.0428 293.535 30.7788L291.039 36.1068C289.791 35.3708 288.527 34.8748 287.247 34.6188C285.999 34.3308 284.783 34.1868 283.599 34.1868C281.935 34.1868 280.719 34.4108 279.951 34.8588C279.183 35.3068 278.799 35.8828 278.799 36.5868C278.799 37.2268 279.071 37.7068 279.615 38.0268C280.191 38.3468 280.943 38.6028 281.871 38.7948C282.799 38.9868 283.807 39.1628 284.895 39.3228C286.015 39.4508 287.135 39.6588 288.255 39.9468C289.375 40.2348 290.383 40.6508 291.279 41.1948C292.207 41.7068 292.959 42.4268 293.535 43.3548C294.111 44.2508 294.399 45.4348 294.399 46.9068C294.399 48.5068 293.919 49.9308 292.959 51.1788C291.999 52.3948 290.607 53.3548 288.783 54.0588C286.991 54.7628 284.799 55.1148 282.207 55.1148Z" fill="#FFFDFD"/>
</svg>
